# xmcd
#
# Track frame offsets:
#       150
#       16341
#       35880
#       49001
#       64404
#       82125
#       103923
#       122106
#       142064
#       158143
#       176030
#       194717
#       211339
#       230709
#       244815
#
# Disc length: 3517 seconds
#
# Revision: 0
# Processed by: cddbd v1.4PL0 Copyright (c) Steve Scherf et al.
# Submitted via: WhereIsIt 3.23
#
DISCID=eb0dbb0f
DTITLE=Various Artist - Blues Story - Vol. 23 - Les Labels De Légende - Poin
DTITLE=t Blank and Demon
DYEAR=1900
DGENRE=
TTITLE0=John Hammond - Fore Day Rider Blues
TTITLE1=Roy Rogers - Vida's Place
TTITLE2=Skip James - Vicksburg Blues
TTITLE3=Mississipi John Hurt - C.C. Rider
TTITLE4=Charlie Musselwhite - Both Sides Of The Fence
TTITLE5=Duke Robillard - Judgement Day
TTITLE6=Walter "Wolfman" Washington - Ain't No Love In The Heart Of The City
TTITLE7=Larry McCray - Delta Hurricane
TTITLE8=Rainer and Das Combo - It's A Matter Of Taste
TTITLE9=Dr John - Mac's Boogie
TTITLE10=Terell - Red Neck Gigolo
TTITLE11=Colin James - Keep On Loving Me Baby
TTITLE12=Zakiya Hooker - Protect Me From The Blues
TTITLE13=Bill Perry - Gettin' Down
TTITLE14=Steve Johnson - Happy Song
EXTD=
EXTT0=
EXTT1=
EXTT2=
EXTT3=
EXTT4=
EXTT5=
EXTT6=
EXTT7=
EXTT8=
EXTT9=
EXTT10=
EXTT11=
EXTT12=
EXTT13=
EXTT14=
PLAYORDER=
